<svg aria-hidden="true" style="position:absolute;width:0;height:0;overflow:hidden" xmlns="http://www.w3.org/2000/svg">
   <defs>
      <symbol id="icon-accessories" viewBox="0 0 12 32">
         <path
            d="M.571 32h10.286c.315 0 .57-.254.572-.569v-11.83l-1.051-1.572a.537.537 0 0 1-.093-.302v-.013.001-1.143c0-.114.036-.22.092-.315l1.049-1.572V7.663l-.978-.978a.565.565 0 0 1-.164-.398v-.581H1.141v.575c0 .158-.063.3-.165.405l-.978.978v7.022l1.049 1.57a.535.535 0 0 1 .094.305v1.153c0 .114-.036.22-.092.315l-1.051 1.572v11.828c0 .315.258.572.571.572zM6.286 0H5.143v1.143h1.143V0zM.572 4.135v.436h10.284v-.436l-.921-1.849H1.491L.572 4.135z" />
      </symbol>
      <symbol id="icon-cart" viewBox="0 0 30 32">
         <path fill="none" stroke="#fff" style="stroke:var(--color1, #fff)" stroke-linejoin="round"
            stroke-linecap="round" stroke-width="2.286"
            d="M8.262 27.154a1.169 1.169 0 0 1 .003 2.332h-.003a1.166 1.166 0 1 1 0-2.332v0zm17.148 0a1.167 1.167 0 0 1-.001 2.334h-.002 0a1.167 1.167 0 0 1 .001-2.334h.002zM1.143 1.905l3.17.549L5.78 19.937a2.748 2.748 0 0 0 2.737 2.519h16.63a2.75 2.75 0 0 0 2.72-2.356l1.446-9.993a2.042 2.042 0 0 0-2.021-2.336H4.822m13.654 5.634h4.226" />
      </symbol>
      <symbol id="icon-comparison" viewBox="0 0 38 32">
         <path fill="none" stroke="#979797" style="stroke:var(--color2, #979797)" stroke-width="2.462"
            d="M2.462 3.692h32" />
         <path fill="#979797" style="fill:var(--color2, #979797)"
            d="M22.154 3.692a3.692 3.692 0 1 1-7.384 0 3.692 3.692 0 0 1 7.384 0z" />
         <path fill="none" stroke="#979797" style="stroke:var(--color2, #979797)" stroke-width="2.462"
            d="M1.231 21.895h15.025v1.153a7.513 7.513 0 0 1-15.026 0v-1.154zm13.538-.357L8.743 7.948l-5.666 13.59m17.846.357h15.025v1.153a7.513 7.513 0 0 1-15.026 0v-1.154zm13.539-.357-6.026-13.59-5.666 13.59" />
      </symbol>
      <symbol id="icon-cosmetics" viewBox="0 0 25 32">
         <path
            d="M10.139.075C8.431.454 7.058 1.711 6.608 3.309l-.084.297H5.016v4.379h12.192V3.61l-1.54-.036-.167-.469a4.681 4.681 0 0 0-3.087-2.93l-.033-.008c-.633-.178-1.659-.219-2.244-.089zM0 18.741V32h10.916l-.444-.734c-1.081-1.787-3.236-6.288-3.525-7.365-.174-.647-.16-2.068.028-2.752.297-1.084 1.044-2.245 1.877-2.921 1.893-1.534 4.338-1.774 6.51-.64.293.155.537.272.542.263s.057-.306.116-.658c.174-1.033.697-2.212 1.31-2.948l.178-.213.74.549c.407.302.74.558.74.569 0 .012-.139.228-.309.478a4.754 4.754 0 0 0-.743 1.671c-.048.224-.089.43-.089.457s.153-.037.34-.142a6.028 6.028 0 0 1 2.881-.722c.28 0 .557.019.827.056l-.032-.003.364.046-.032-11.477-3.079-.034v4.38h-16l-.018-2.172-.018-2.174-1.54-.018L0 5.482v13.262zm11.906.063c-.388.076-.96.288-1.28.471-.418.242-1.102.903-1.346 1.305-.519.848-.706 1.916-.491 2.809.167.699 1.84 4.315 2.773 5.998.889 1.596 1.317 2.151 1.867 2.404.284.13.412.146 1.148.146.754 0 .857-.012 1.143-.153.172-.085.484-.322.69-.528l.377-.375.441.409c.629.587.791.645 1.765.647.862 0 1.086-.046 1.493-.318.59-.395 1.916-2.695 3.314-5.748 1.031-2.249 1.127-2.564 1.079-3.515a3.76 3.76 0 0 0-1.884-3.061l-.018-.01a3.903 3.903 0 0 0-1.953-.517 3.93 3.93 0 0 0-2.09.598l.017-.01c-.476.304-1.031.88-1.296 1.342l-.204.356h-1.259l-.274-.421c-.647-.992-1.522-1.595-2.613-1.801a3.745 3.745 0 0 0-1.422-.025l.022-.003z" />
      </symbol>
      <symbol id="icon-credit" viewBox="0 0 33 32">
         <path fill="#fddc00" style="fill:var(--color3, #fddc00)"
            d="M7.981 24.053c4.8 4.331 12.204 3.95 16.534-.85 4.331-4.8 3.95-12.204-.85-16.534a11.626 11.626 0 0 0-7.832-3.016c-.421 0-.836.022-1.245.066l.051-.004 1.184 11.646-11.708.015a11.649 11.649 0 0 0 3.855 8.667l.01.009z" />
         <path fill="#10af0e" style="fill:var(--color4, #10af0e)"
            d="M5.261 5.832a11.612 11.612 0 0 0-3.015 7.825v.033-.002l11.706-.015-1.186-11.646a11.665 11.665 0 0 0-7.498 3.794l-.009.01z" />
      </symbol>
      <symbol id="icon-liqpay" viewBox="0 0 149 32">
         <path fill="#fff" style="fill:var(--color1, #fff)"
            d="M84.76 2.391c-.249-.733-.577-1.354-1.282-1.383h-1.764a1.528 1.528 0 0 0-.16-.011h-.567c-.055 0-.11.006-.161.011-.588.088-.883.678-1.105 1.366l-8.714 24.35c0 .322.26.583.583.583h1.821c.722 0 1.092-.594 1.31-1.31l1.737-5.074a.869.869 0 0 1 .819-.583h9.693c.366 0 .695.234.817.577l1.81 5.129c.221.717.61 1.31 1.365 1.31h1.919a.596.596 0 0 0 .596-.582v-.001L84.762 2.39zm-7.109 15.07L82.047 4.65l4.524 12.811H77.65zM110.24 1.074c-.233-.088-1.581-.077-1.581-.077-.905.022-1.483 0-1.887.561a1.73 1.73 0 0 0-.147.25l-.005.011-5.4 11.684-5.561-11.679c-.044-.088-.088-.177-.15-.26-.405-.561-.982-.544-1.887-.561 0 0-1.348-.011-1.582.077-.555.211-.188.894.073 1.454l6.822 13.61a4.47 4.47 0 0 1 .471 1.997v8.215c0 .555.45 1.004 1.004 1.004h1.427c.555 0 1.004-.45 1.004-1.004v-8.175c0-.694.162-1.376.472-1.997l6.85-13.656c.266-.561.632-1.244.077-1.454z" />
         <path fill="#76a62d" style="fill:var(--color5, #76a62d)"
            d="M136.317 13.785 119.943.069a.3.3 0 0 0-.411.022l-2.42 2.521 13.37 11.172-13.37 11.174 2.42 2.52a.301.301 0 0 0 .41.022l16.374-13.716z" />
         <path fill="#76a62d" style="fill:var(--color5, #76a62d)"
            d="M148.082 13.898 131.708.182a.3.3 0 0 0-.411.022l-2.42 2.52 13.372 11.174-13.372 11.174 2.42 2.519a.3.3 0 0 0 .41.022l16.374-13.716z" />
         <path fill="#fff" style="fill:var(--color1, #fff)"
            d="M20.042.981h-2.065a.776.776 0 0 0-.776.776V26.486c0 .449.366.821.821.821h1.987a.823.823 0 0 0 .822-.822V1.763a.79.79 0 0 0-.789-.783zm-7.387 23.19H3.436V1.764A.776.776 0 0 0 2.66.988H.776A.776.776 0 0 0 0 1.764v24.461c0 .51.41.921.921.921h11.743a.796.796 0 0 0 .796-.796V24.969a.811.811 0 0 0-.805-.8zM68.306 2.434c-1.15-.777-2.737-1.326-5.773-1.326h-5.878c-.7 0-1.271.566-1.271 1.271v23.623c0 .722.584 1.31 1.311 1.31h1.01c.722 0 1.31-.583 1.31-1.31v-8.875h5.295c.516 0 7.144-1.037 7.144-8.254-.006-3.142-1.615-5.396-3.147-6.439zm-5.202 11.973h-4.096V3.829h2.92c2.004 0 3.053.361 3.814.876 1.015.689 2.074 2.176 2.074 4.253.007 4.767-4.367 5.451-4.712 5.451zM52.025 27.895a2.024 2.024 0 0 0-.463-.246l-.014-.005c-1.366-.522-3.359-1.903-4.469-2.62-.861-.555-.726-.993-.61-1.176l.078-.095c1.887-2.314 2.979-5.611 2.979-9.774C49.527 6.62 46.381.653 37.838.653c-7.859 0-11.634 5.966-11.634 13.326S28.741 27.64 37.838 27.64c1.848 0 3.548-.356 5.041-1.044h.006c.438-.189.865-.183 1.454.244 4.217 3.125 6.311 4.274 7.809 4.274.722 0 .594-2.22.594-2.22s-.105-.561-.716-.999zM29.934 14.036v-.055c.011-4.996 1.832-10.297 7.915-10.297 6.894 0 7.948 5.301 7.955 10.296v.055c0 5.945-1.927 10.463-7.955 10.463-6.921 0-7.915-5.451-7.915-10.463z" />
      </symbol>
      <symbol id="icon-expand" viewBox="0 0 32 32">
         <path fill="#ffb800" style="fill:var(--color6, #ffb800)"
            d="M29 16c0 7.18-5.82 13-13 13S3 23.18 3 16 8.82 3 16 3s13 5.82 13 13z" />
         <path fill="none" stroke="#ffb800" style="stroke:var(--color6, #ffb800)"
            d="M31.5 16c0 8.56-6.94 15.5-15.5 15.5S.5 24.56.5 16C.5 7.44 7.44.5 16 .5S31.5 7.44 31.5 16z" />
         <path fill="none" stroke="#fff" style="stroke:var(--color1, #fff)" d="M8.958 12.749 16 20.332l7.042-7.583" />
      </symbol>
      <symbol id="icon-facebook" viewBox="0 0 32 32">
         <path fill="#fff" style="fill:var(--color1, #fff)"
            d="M3.2 0A3.2 3.2 0 0 0 0 3.2v24.25a3.2 3.2 0 0 0 3.2 3.2h24.25a3.2 3.2 0 0 0 3.2-3.2V3.2a3.2 3.2 0 0 0-3.2-3.2H3.2zm14.4 24h-4.218v-8.832H11.2v-3.002h2.182V9.772c0-2.208 1.381-3.373 4.509-3.373H20.8v3.066h-2.256c-.8 0-.944.307-.944.982v1.717h3.2l-.291 2.944H17.6v8.891z" />
      </symbol>
      <symbol id="icon-favorites" viewBox="0 0 35 32">
         <path fill="none" stroke="#979797" style="stroke:var(--color2, #979797)" stroke-linejoin="round"
            stroke-linecap="round" stroke-width="2.667"
            d="M16.425 30.428c-3.703-2.299-6.916-4.821-9.826-7.653l.013.013a19.541 19.541 0 0 1-4.628-7.311l-.042-.137C.189 9.889 2.237 3.649 7.969 1.801a9.532 9.532 0 0 1 2.983-.468c2.209 0 4.247.735 5.881 1.975l-.024-.018a9.687 9.687 0 0 1 5.86-1.956c1.065 0 2.09.171 3.049.486l-.069-.02c5.733 1.848 7.796 8.088 6.043 13.54-1.028 2.916-2.624 5.407-4.67 7.446h0a57.022 57.022 0 0 1-9.574 7.501l-.24.139-.384.239-.397-.239z" />
         <path fill="none" stroke="#979797" style="stroke:var(--color2, #979797)" stroke-linejoin="round"
            stroke-linecap="round" stroke-width="2.667" d="M22.908 7.937a4.546 4.546 0 0 1 3.123 3.93l.001.017" />
      </symbol>
      <symbol id="icon-gift" viewBox="0 0 27 32">
         <path
            d="M6.964.075c-.213.05-.601.203-.862.338-.91.476-1.452 1.161-1.81 2.29-.533 1.684-.302 2.997.725 4.142.364.405.836.796 1.292 1.068l.327.196L0 8.111v6.443h12.558V8.175h1.548v6.379h12.56l-.016-3.205-.014-3.205-3.573-.03c-3.547-.032-3.568-.032-3.36-.151a7.687 7.687 0 0 0 1.582-1.252c1.031-1.083 1.387-2.226 1.12-3.584-.204-1.042-.647-1.902-1.211-2.352-1.186-.951-2.83-1.029-4.395-.213-1.138.592-2.073 1.748-3.084 3.815-.18.37-.35.672-.377.672-.028 0-.201-.402-.386-.891-.391-1.044-.782-1.65-1.589-2.455C10.584.924 9.802.434 8.924.171 8.343-.001 7.472-.044 6.961.077zm1.493 2.009c.741.228 1.324.693 1.868 1.493.348.512.942 1.607 1.257 2.322.284.645.638 1.652.596 1.696-.014.014-.329-.018-.7-.075-2.411-.361-4.112-1.013-4.987-1.908-.444-.455-.564-.772-.567-1.504 0-.523.018-.64.165-.969.217-.489.464-.756.905-.978.421-.213.942-.24 1.463-.08zm11.008-.04c.83.242 1.275 1.052 1.093 1.991-.258 1.324-1.399 2.258-3.756 3.072-.894.309-2.265.663-2.325.601-.103-.11.519-1.724.962-2.489.672-1.164 1.404-2.281 1.643-2.507.604-.576 1.675-.875 2.384-.668zM1.785 23.932V32h10.951V15.899l-1.34 2.501-2.039 3.797c-.382.713-.711 1.298-.729 1.298s-.082-.091-.142-.203c-.064-.112-.324-.558-.578-.99l-.462-.786-1.237.235c-.679.128-1.241.229-1.244.222-.005-.005.658-1.248 1.476-2.763-.282.648.261-.349.798-1.35l.832-1.697.146-.299h-6.43v8.068zm16.843-7.738 1.625 3.017c1.061 1.97 1.424 2.695 1.356 2.706a13.515 13.515 0 0 1-1.321-.207l.087.015-1.143-.212-.592 1.026-.59 1.024-.148-.267c-.082-.149-.972-1.817-1.98-3.71-1.281-2.5-1.907-3.645-2.542-4.784l.658 1.286c-.027-.032-.05 3.534-.05 7.927v7.986H24.88V15.866h-6.428l.176.329z" />
      </symbol>
      <symbol id="icon-instagram" viewBox="0 0 32 32">
         <path fill="#fff" style="fill:var(--color1, #fff)"
            d="M3.45 0a3.2 3.2 0 0 0-3.2 3.2v24.25a3.2 3.2 0 0 0 3.2 3.2H27.7a3.2 3.2 0 0 0 3.2-3.2V3.2A3.2 3.2 0 0 0 27.7 0H3.45zm16.294 7.558.028.002a8.83 8.83 0 0 1 1.692.278l.082.021c.451.15.75.376 1.125.75.376.374.528.677.752 1.126.15.376.301.826.301 1.802.074 1.051.074 1.352.074 3.979s0 2.926-.074 3.978c-.069.893-.2 1.41-.28 1.722l-.021.08c-.15.451-.376.75-.75 1.125-.374.376-.675.528-1.126.752-.374.15-.826.301-1.802.301h-3.979c-2.627 0-2.926 0-3.978-.075a9.179 9.179 0 0 1-1.722-.28l-.08-.019c-.451-.152-.75-.376-1.125-.752-.376-.374-.528-.675-.752-1.126-.15-.374-.301-.826-.301-1.802-.075-1.05-.075-1.35-.075-3.978s0-2.928.075-3.979c.069-.893.2-1.408.28-1.72l.021-.082c.15-.45.376-.75.75-1.125.374-.376.675-.526 1.126-.752.376-.15.826-.299 1.802-.299h3.978c2.629 0 2.928 0 3.979.074zm-8.032-1.801c1.051-.074 1.426-.074 4.053-.074 2.629 0 2.928 0 3.979.074 1.051.075 1.802.226 2.402.451.677.224 1.202.6 1.728 1.126.41.411.683.867.963 1.334.077.131.155.261.237.392.224.675.376 1.35.451 2.402.074 1.051.074 1.352.074 4.054s0 3.002-.074 4.053c-.075 1.051-.226 1.802-.451 2.402-.224.677-.6 1.202-1.126 1.728-.525.525-1.051.901-1.726 1.125-.675.226-1.35.376-2.402.451s-1.352.075-4.054.075c-2.701 0-3.002 0-4.053-.075s-1.802-.226-2.402-.451c-.677-.224-1.202-.6-1.728-1.126-.525-.525-.899-1.05-1.125-1.726-.224-.675-.376-1.35-.451-2.4-.075-1.053-.075-1.352-.075-4.054 0-2.704 0-3.003.075-4.054s.226-1.802.451-2.402c.224-.675.6-1.2 1.126-1.728.525-.525 1.05-.899 1.726-1.125.675-.224 1.35-.376 2.402-.451zm4.054 4.729h-.002a5.03 5.03 0 1 0 5.03 5.03c0-2.778-2.326-5.03-5.029-5.03zm0 8.258h-.024a3.203 3.203 0 0 1-3.203-3.203v-.025.001a3.203 3.203 0 0 1 3.227-3.229 3.204 3.204 0 0 1 3.227 3.229c0 1.726-1.501 3.227-3.227 3.227zm5.181-7.28c.675 0 1.2-.528 1.2-1.203v-.014c0-.655-.531-1.186-1.186-1.186h-.015.001-.016c-.655 0-1.186.531-1.186 1.186v.015-.001c0 .677.525 1.202 1.2 1.202z" />
      </symbol>
      <symbol id="icon-katalog" viewBox="0 0 32 32">
         <path fill="#fff" style="fill:var(--color1, #fff)" opacity=".64" d="M0 0h12.444v12.444H0z" />
         <path fill="#fff" style="fill:var(--color1, #fff)"
            d="M19.556 0H32v12.444H19.556zm0 19.556H32V32H19.556zM0 19.556h12.444V32H0z" />
      </symbol>
      <symbol id="icon-komplekt" viewBox="0 0 32 32">
         <path
            d="M28.252 16.226c0-4.242 3.015-4.999 3.015-8.836v-.016A6.798 6.798 0 0 0 24.486.576H24.464a6.8 6.8 0 0 0-6.8 6.798v.009c0 3.835 3.015 4.594 3.015 8.836 0 4.24-3.015 4.992-3.015 8.836l-.001.142a6.802 6.802 0 0 0 6.654 6.8h.007l.144.002a6.802 6.802 0 0 0 6.8-6.654v-.299a6.398 6.398 0 0 0-.964-3.369c-1.012-1.73-2.052-2.862-2.052-5.451zM21.767 4.649a3.844 3.844 0 0 1 6.56 2.72v.001a3.847 3.847 0 0 1-6.56 2.716c-.695-.696-1.125-1.657-1.125-2.718s.43-2.022 1.125-2.718zm2.709 24.24h-.002a3.84 3.84 0 0 1-3.84-3.84v-.008a3.84 3.84 0 0 1 3.84-3.84h.004a3.847 3.847 0 0 1 3.842 3.844 3.846 3.846 0 0 1-3.843 3.844z" />
         <path
            d="M16.805 24.373c.137-1.369.514-2.272 1.28-3.513a7.082 7.082 0 0 1-2.386.406h-.069.004c-4.249 0-4.999-3.015-8.836-3.015a6.805 6.805 0 0 0-.011 13.603H6.807c3.835 0 4.594-3.015 8.836-3.015.804-.009 1.6.114 2.357.373a7.715 7.715 0 0 1-1.222-4.188c0-.229.01-.455.029-.679l-.002.029zm-9.998 4.519a3.846 3.846 0 0 1-3.844-3.843 3.847 3.847 0 0 1 3.844-3.844c2.119 0 3.842 1.723 3.842 3.844s-1.72 3.842-3.842 3.844z" />
      </symbol>
      <symbol id="icon-mastercard" viewBox="0 0 181 32">
         <path fill="#fff" style="fill:var(--color1, #fff)"
            d="M78.611 21.2v-6.62c0-2.493-1.589-4.169-4.148-4.192a4.081 4.081 0 0 0-3.697 1.86l-.01.016a3.877 3.877 0 0 0-3.495-1.876h.008a3.485 3.485 0 0 0-3.081 1.554l-.008.013v-1.301h-2.293v10.547h2.316v-5.848c0-1.831 1.015-2.801 2.581-2.801 1.523 0 2.293.993 2.293 2.78v5.869h2.319v-5.848c0-1.831 1.059-2.801 2.581-2.801 1.567 0 2.316.993 2.316 2.78v5.869h2.317zm34.288-10.547h-3.751v-3.2h-2.317v3.2h-2.14v2.096h2.14v4.809c0 2.449.949 3.907 3.663 3.907a5.393 5.393 0 0 0 2.869-.817l-.663-1.964a4.214 4.214 0 0 1-2.029.596c-1.147 0-1.523-.707-1.523-1.765V12.75h3.751v-2.096zm19.572-.265-.091-.001c-1.142 0-2.14.615-2.681 1.532l-.008.014v-1.28h-2.273V21.2h2.295v-5.913c0-1.743.751-2.715 2.251-2.715.491-.007.979.084 1.435.267l.705-2.164a4.826 4.826 0 0 0-1.631-.287h-.001zm-29.591 1.105a7.796 7.796 0 0 0-4.316-1.104h.014c-2.669 0-4.391 1.28-4.391 3.376 0 1.72 1.28 2.78 3.64 3.111l1.083.155c1.257.177 1.853.507 1.853 1.104 0 .816-.84 1.28-2.405 1.28a5.592 5.592 0 0 1-3.524-1.115l.015.011-1.08 1.787a7.55 7.55 0 0 0 4.577 1.369h-.011c3.045 0 4.811-1.435 4.811-3.443 0-1.853-1.391-2.824-3.685-3.156l-1.08-.153c-.993-.133-1.788-.331-1.788-1.037 0-.773.749-1.236 2.008-1.236a6.769 6.769 0 0 1 3.32.923l-.032-.017.992-1.853zm61.472-1.104-.092-.001a3.107 3.107 0 0 0-2.68 1.532l-.008.014v-1.28H159.3v10.547h2.295v-5.913c0-1.743.751-2.715 2.251-2.715.491-.007.977.084 1.435.267l.705-2.164a4.836 4.836 0 0 0-1.632-.287h-.001zm-29.567 5.539c0 3.2 2.229 5.539 5.627 5.539a5.503 5.503 0 0 0 3.805-1.266l-.009.007-1.104-1.853a4.598 4.598 0 0 1-2.754.949h-.003c-1.832-.023-3.177-1.347-3.177-3.376 0-2.031 1.345-3.355 3.177-3.376a4.61 4.61 0 0 1 2.768.957l-.011-.008 1.104-1.853a5.494 5.494 0 0 0-3.81-1.259l.013-.001c-3.397 0-5.627 2.339-5.627 5.539zm21.492 0v-5.275h-2.295v1.28a4 4 0 0 0-3.34-1.545h.008c-2.957 0-5.273 2.317-5.273 5.539s2.316 5.539 5.273 5.539a3.993 3.993 0 0 0 3.325-1.536l.007-.009v1.28h2.295v-5.273zm-8.54 0c0-1.853 1.215-3.376 3.2-3.376 1.897 0 3.177 1.456 3.177 3.376s-1.28 3.376-3.177 3.376c-1.985 0-3.2-1.523-3.2-3.376zm-27.689-5.541c-3.089 0-5.252 2.251-5.252 5.539 0 3.353 2.251 5.539 5.407 5.539a6.387 6.387 0 0 0 4.334-1.488l-.01.008-1.125-1.699a4.994 4.994 0 0 1-3.063 1.104h-.004c-1.479 0-2.824-.684-3.155-2.581h7.832c.023-.287.045-.573.045-.883-.023-3.288-2.053-5.539-5.009-5.539zm-.044 2.053c1.479 0 2.427.925 2.669 2.559h-5.472c.243-1.523 1.169-2.56 2.803-2.56zm57.567 3.485V6.416h-2.295v5.517a4 4 0 0 0-3.34-1.545h.008c-2.956 0-5.273 2.317-5.273 5.539s2.317 5.539 5.273 5.539a3.994 3.994 0 0 0 3.326-1.536l.007-.009v1.28h2.295v-5.273zm2.681 4.3h.008c.185 0 .353.075.475.196a.666.666 0 0 1 .144.737l.002-.004a.688.688 0 0 1-1.313-.259v-.003c0-.369.299-.668.668-.668h.018-.001zm0 1.191h.005a.502.502 0 0 0 .361-.152.525.525 0 0 0-.16-.848l-.003-.001a.523.523 0 0 0-.608.151l-.001.001a.524.524 0 0 0 .406.85zm.04-.835.018-.001c.062 0 .12.02.167.054l-.001-.001c.021.017.039.04.051.065a.184.184 0 0 1 .015.08v.006a.175.175 0 0 1-.012.065v-.001a.178.178 0 0 1-.04.057.244.244 0 0 1-.146.061h-.001l.204.235h-.16l-.188-.233h-.061v.233h-.132v-.621h.287zm-.155.116v.167h.159a.148.148 0 0 0 .078-.022h-.001a.085.085 0 0 0 .024-.026.088.088 0 0 0 .007-.032v-.004a.078.078 0 0 0-.008-.035.073.073 0 0 0-.022-.027.154.154 0 0 0-.078-.021h-.159zm-11.105-4.773c0-1.853 1.213-3.375 3.199-3.375 1.897 0 3.177 1.456 3.177 3.376s-1.28 3.376-3.177 3.376c-1.985 0-3.199-1.523-3.199-3.376zm-77.492 0v-5.271h-2.293v1.28a4 4 0 0 0-3.342-1.545h.009c-2.956 0-5.273 2.317-5.273 5.539s2.317 5.539 5.273 5.539a3.993 3.993 0 0 0 3.326-1.536l.007-.009v1.28h2.293v-5.273zm-8.539 0c0-1.853 1.213-3.375 3.2-3.375 1.897 0 3.177 1.456 3.177 3.376s-1.28 3.376-3.177 3.376c-1.987 0-3.2-1.523-3.2-3.376z" />
         <path fill="#ff5f00" style="fill:var(--color7, #ff5f00)" d="M32.585 3.391H18.706v24.937h13.88V3.391z" />
         <path fill="#eb001b" style="fill:var(--color8, #eb001b)"
            d="M19.603 15.859v-.014c0-5.04 2.355-9.529 6.024-12.429l.033-.025a15.759 15.759 0 0 0-9.799-3.39C7.103.001.002 7.101.002 15.86s7.1 15.859 15.859 15.859c3.714 0 7.13-1.277 9.833-3.415l-.033.025c-3.703-2.925-6.057-7.415-6.057-12.455v-.015.001z" />
         <path fill="#f79e1b" style="fill:var(--color9, #f79e1b)"
            d="M51.307 15.859c-.001 8.759-7.101 15.858-15.86 15.858a15.792 15.792 0 0 1-9.832-3.414l.033.025c3.703-2.931 6.057-7.425 6.057-12.469s-2.354-9.538-6.024-12.443l-.033-.025a15.756 15.756 0 0 1 9.8-3.39c8.758 0 15.859 7.1 15.859 15.858zm-1.494 9.826v-.511h.205v-.104h-.524v.104h.207v.511h.112zm1.018 0v-.615h-.16l-.185.423-.185-.423h-.16v.615h.113v-.464l.173.4h.117l.173-.4v.464h.113z" />
      </symbol>
      <symbol id="icon-location" viewBox="0 0 27 32">
         <path fill="none" stroke="#fff" style="stroke:var(--color1, #fff)" stroke-linejoin="round"
            stroke-linecap="round" stroke-width="2.667"
            d="M1.778 13.148C1.877 6.922 6.947 1.914 13.186 1.914c6.267 0 11.353 5.052 11.409 11.306v.135c-.078 4.096-2.364 7.881-5.168 10.841a30.145 30.145 0 0 1-5.222 4.321l-.115.07c-.241.209-.558.336-.904.336s-.663-.127-.906-.338l.002.001a29.72 29.72 0 0 1-7.454-6.953l-.054-.074a14.497 14.497 0 0 1-2.997-8.348l-.001-.025v-.037z" />
         <path fill="none" stroke="#fff" style="stroke:var(--color1, #fff)" stroke-linejoin="round"
            stroke-linecap="round" stroke-width="2.667"
            d="M17.778 13.333a4.444 4.444 0 1 1-8.888 0 4.444 4.444 0 0 1 8.888 0z" />
      </symbol>
      <symbol id="icon-logo" viewBox="0 0 193 32">
         <path fill="#fff" style="fill:var(--color1, #fff)"
            d="M182.73 12.284c2.481-1.619 3.559-1.546 4.817.252.576-.576 1.223-1.043 2.015-1.26a2.944 2.944 0 0 1 1.603.005l-.021-.005c.97.252 1.51.972 1.581 2.086.073.972-.144 1.942-.179 2.877-.036.288-.073.538-.108.828-.073.538.108.684.611.575.252-.073.323-.036.323.252 0 .396.036.756.073 1.151.035.217-.036.359-.252.432-.791.396-1.619.575-2.481.359-.647-.144-1.043-.575-1.114-1.222-.109-.864.108-1.69.143-2.518.036-.432.109-.899.109-1.331-.036-.863-.576-1.222-1.404-.934-.575.215-.863.538-.899 1.185-.108 1.475-.287 2.948-.431 4.423-.036.288-.108.396-.432.396-.684-.036-1.366 0-2.049 0-.288 0-.396-.073-.359-.359.179-1.439.323-2.877.467-4.316.036-.503.073-1.043-.431-1.329-.505-.288-.972-.036-1.404.215-.396.215-.575.538-.611 1.007-.108 1.439-.288 2.877-.431 4.316-.036.287-.144.431-.468.431-.684-.035-1.366 0-2.049 0-.215 0-.323 0-.288-.287l.755-7.264c.036-.215.073-.324.324-.359.755-.18 1.546-.361 2.301-.576.252-.073.288 0 .252.215.073.217 0 .468.036.756zm-31.427 6.509c-.899 1.076-2.015 1.401-3.309 1.185-.863-.144-1.473-.611-1.905-1.402-.97-1.833-.575-4.783.899-6.257 1.151-1.149 2.518-1.402 4.064-1.007.252.073.503.217.791.432.071-.503.108-.935.143-1.367.109-1.007.217-2.049.324-3.055 0-.18.071-.253.252-.324a50.094 50.094 0 0 0 2.825-.712l-.416.101c.217-.073.217.035.217.215-.217 2.157-.468 4.314-.684 6.473l-.432 3.991c-.035.467.144.647.576.538.108-.035.215-.035.359-.071.071.538.108 1.043.108 1.583 0 .179-.108.252-.215.287-.755.396-1.546.611-2.445.396a1.562 1.562 0 0 1-1.147-.996l-.003-.011zm-2.948-2.877c.035.684.108 1.329.79 1.654.684.287 1.295.144 1.871-.288.284-.196.467-.519.467-.886v-.014.001c.036-.611.108-1.258.18-1.871.071-.394-.073-.575-.359-.79a1.818 1.818 0 0 0-2.657.778l-.005.012a3.229 3.229 0 0 0-.286 1.407v-.003zm-18.195-4.71c.073.324-.036.611 0 .972.431-.396.826-.684 1.366-.864 1.942-.611 3.524.288 3.956 2.303.358 1.617.179 3.2-.756 4.637-.97 1.511-2.912 2.193-4.567 1.619a2.033 2.033 0 0 1-.721-.398l.003.002c-.144.432-.144.828-.179 1.222a70.28 70.28 0 0 0-.328 2.987l-.032.432c-.035.287-.108.394-.431.394a17.474 17.474 0 0 0-1.942 0c-.324 0-.468-.073-.396-.432.18-1.689.359-3.344.538-5.033.217-1.978.397-3.92.611-5.898.038-.179.038-.359.073-.538.109-.72.109-.72.791-.9a55.359 55.359 0 0 0 2.015-.503zm1.295 2.266h-.217c-.826.073-1.402.611-1.473 1.439-.073.611-.109 1.185-.18 1.798-.036.359.108.575.396.755a1.87 1.87 0 0 0 2.656-.817l.005-.012c.323-.684.359-1.439.179-2.157-.215-.647-.684-1.007-1.367-1.007zm42.826-2.301c2.121 0 3.523 1.043 3.919 2.948.359 1.833-.071 3.488-1.473 4.746-1.404 1.222-3.092 1.51-4.819.899-1.546-.538-2.265-1.761-2.374-3.344-.143-2.193 1.008-4.387 3.38-5.071.432-.144.935-.179 1.367-.179zm-2.015 4.673v.361c.108 1.185 1.043 1.798 2.049 1.366.361-.18.647-.467.828-.828a3.193 3.193 0 0 0 .21-2.323l.006.022c-.215-.755-.899-1.149-1.69-.934a1.722 1.722 0 0 0-1.11.923l-.004.01a3.814 3.814 0 0 0-.288 1.399v.004zm-59.726-.647c-.073 2.301-1.295 3.991-3.415 4.639a4.67 4.67 0 0 1-1.429.218c-.625 0-1.221-.12-1.768-.337l.032.011c-1.078-.432-1.761-1.222-2.084-2.337-.611-2.051.25-4.46 2.049-5.537 1.366-.828 2.841-.935 4.349-.396 1.44.503 2.303 1.978 2.266 3.738zm-6.005.719c0 .108 0 .252.036.396.108.756.503 1.258 1.078 1.402.647.145 1.331-.144 1.69-.791.503-.826.576-1.69.252-2.589a1.161 1.161 0 0 0-.964-.826l-.006-.001c-.684-.108-1.331.215-1.69.826-.288.468-.396.972-.396 1.583zm-10.104 1.182c.18.54.359 1.043.54 1.511.036.144.036.215-.073.323-1.617 1.007-3.344 1.511-5.213.72-1.222-.503-1.833-1.511-2.013-2.769-.217-1.546.071-2.985 1.078-4.207 1.151-1.367 3.524-1.942 5.142-1.222 1.619.719 2.374 2.695 1.727 4.495-.073.215-.215.179-.396.179h-4.531c-.432 0-.467.036-.323.467.215.791.684 1.151 1.51 1.187a4.466 4.466 0 0 0 2.571-.695l-.018.011zm-2.553-2.301h.828c.647 0 .826-.287.538-.899a1.06 1.06 0 0 0-.497-.535l-.006-.003c-.863-.468-2.157.252-2.265 1.258-.036.179.073.215.215.215.359-.036.791-.036 1.187-.036zm48.041 1.334h-2.268c-.359 0-.359.109-.288.397.217.826.684 1.222 1.546 1.258.828.035 1.583-.108 2.301-.503.217-.145.288-.073.361.144l.431 1.185c.036.145.073.288-.108.396-1.473.899-3.02 1.367-4.71.864-1.367-.396-2.159-1.367-2.445-2.735-.432-2.121.396-4.278 2.084-5.248 1.26-.756 2.625-.935 4.029-.396 1.257.503 1.833 1.51 2.013 2.804.071.538 0 1.043-.145 1.583-.071.215-.179.323-.431.323-.828-.073-1.617-.073-2.374-.073zm-1.08-1.33h1.222c.217.036.288-.073.288-.288.036-.611-.323-1.114-.863-1.258-.864-.252-1.905.467-2.051 1.367-.035.179.073.179.18.179h1.222zm-22.797-3.63c.97.035 1.942.144 2.876.467.252.073.324.215.217.467-.217.54-.396 1.116-.576 1.655-.073.215-.108.323-.396.179-.755-.431-1.581-.538-2.444-.503a1.086 1.086 0 0 0-.58.183l.004-.002c-.217.144-.288.359-.288.611s.18.396.359.432c.503.144 1.007.215 1.51.359.18.036.324.073.503.144.864.252 1.583.684 1.69 1.654.145 1.007-.215 1.833-1.043 2.444-.719.505-1.51.684-2.372.756-1.402.108-2.733-.036-3.991-.684-.647-.323-.647-.323-.324-.97.18-.359.396-.72.576-1.079.108-.215.144-.252.396-.108.791.538 1.725.72 2.662.72.215 0 .465-.036.682-.145.215-.106.359-.287.359-.538s-.18-.396-.396-.468c-.538-.215-1.114-.215-1.654-.394-.036 0-.073 0-.108-.036-.899-.252-1.69-.611-1.871-1.654-.215-1.151.18-2.051 1.079-2.697.935-.647 2.013-.791 3.127-.791zm-33.62 5.716a332.953 332.953 0 0 1 1.833-4.748c.324-.863.108-.684 1.007-.719h2.23c.252 0 .288.071.18.323-1.295 2.589-2.589 5.215-3.884 7.84-.073.179-.18.215-.396.215h-2.697c-.18 0-.288-.073-.324-.253-.755-2.589-1.473-5.213-2.228-7.802-.073-.215 0-.288.215-.288h2.769c.25 0 .287.108.323.324.288 1.69.538 3.344.828 5.033.035-.035.071 0 .143.073zm76.769-.97c.073-1.402.503-2.662 1.583-3.596 1.078-.972 2.372-1.222 3.74-1.151a5.205 5.205 0 0 1 2.329.625l-.028-.014c.215.108.288.215.144.467a33.3 33.3 0 0 0-.828 1.546c-.144.252-.215.361-.54.18a2.925 2.925 0 0 0-2.214-.247l.021-.005c-1.51.467-1.617 2.553-.899 3.344.361.396.791.538 1.26.503.755-.036 1.402-.252 1.977-.755.252-.215.324-.108.396.108.18.54.324 1.079.503 1.583.073.179.036.288-.108.396-1.654 1.078-3.38 1.473-5.249.791-1.295-.468-1.871-1.546-2.049-2.841 0-.288 0-.611-.036-.935zm-60.445 3.99c-.359 0-.684-.073-1.007-.144-.684-.215-1.043-.755-1.008-1.654.036-.899.145-1.833.252-2.733.18-1.761.361-3.559.576-5.321.073-.829.18-1.69.252-2.518.036-.323.144-.467.467-.538.72-.145 1.44-.324 2.159-.541.252-.071.287 0 .252.217l-.756 7.12-.323 3.344c-.036.467.073.575.538.538.72-.071.72-.071.756.647v.324c.073.755.073.755-.684 1.007a6.83 6.83 0 0 1-1.453.251l-.021.001zm23.552-8.484h1.007c.288 0 .361.073.324.359a102.53 102.53 0 0 1-.414 3.953l.055-.536c-.145 1.437-.324 2.841-.468 4.278-.036.252-.108.361-.359.324-.684 0-1.402-.036-2.086 0-.288 0-.359-.108-.323-.396.179-1.654.359-3.345.503-4.998a70.47 70.47 0 0 0 .288-2.697c.035-.252.108-.324.359-.324.396.036.755.036 1.114.036zm33.801 4.958c1.007 0 1.761.719 1.798 1.69 0 1.078-1.007 2.013-2.157 2.013-.972 0-1.727-.756-1.727-1.69-.036-1.114.935-2.013 2.086-2.013zm-33.657-6.327c-.899 0-1.439-.538-1.439-1.402 0-1.007.756-1.727 1.798-1.69.863 0 1.475.611 1.475 1.402 0 1.007-.791 1.727-1.834 1.69z" />
         <path fill="#67a445" style="fill:var(--color10, #67a445)"
            d="M56.886 30.745c-2.625 0-5.215-.684-7.516-1.978-5.43-3.092-11.075-3.847-13.305-3.776-2.228-.073-7.875.72-13.305 3.776-2.159 1.244-4.748 1.978-7.508 1.978h-.006c-8.415 0-15.247-6.905-15.247-15.356S6.831 0 15.246 0c2.624 0 5.213.684 7.516 1.978C28.19 5.07 33.837 5.825 36.065 5.753c2.23.036 7.875-.719 13.305-3.775C51.529.734 54.118 0 56.878 0h.01-.001C65.3 0 72.131 6.903 72.131 15.354s-6.832 15.389-15.245 15.389zm-20.604-6.473c3.2 0 8.701 1.187 13.411 3.884 2.059 1.198 4.532 1.905 7.17 1.905h.024-.001c8.054 0 14.598-6.58 14.598-14.707 0-8.09-6.544-14.707-14.596-14.707-2.516 0-4.999.647-7.191 1.905-4.819 2.733-10.429 3.956-13.629 3.884-3.164.036-8.809-1.114-13.628-3.884C20.381 1.354 17.908.647 15.27.647h-.022.001C7.192.647.648 7.227.648 15.352c0 8.092 6.545 14.708 14.599 14.708 2.516 0 4.998-.647 7.191-1.905 4.819-2.735 10.464-3.92 13.629-3.884h.215z" />
         <path fill="#67a445" style="fill:var(--color10, #67a445)"
            d="M56.886 19.993c-2.516 0-4.604-2.086-4.604-4.639s2.051-4.639 4.604-4.639c2.516 0 4.602 2.086 4.602 4.64 0 2.551-2.086 4.637-4.602 4.637zm0-8.594a3.936 3.936 0 0 0-3.92 3.936v.021-.001.018a3.936 3.936 0 0 0 3.919 3.936h.001a3.937 3.937 0 0 0 3.919-3.936v-.02.001c0-2.157-1.761-3.956-3.919-3.956zm-41.639 8.594c-2.516 0-4.604-2.086-4.604-4.639s2.051-4.639 4.604-4.639c2.516 0 4.602 2.086 4.602 4.64 0 2.551-2.051 4.637-4.602 4.637zm0-8.594a3.936 3.936 0 0 0-3.92 3.936v.021-.001.018a3.936 3.936 0 0 0 3.919 3.936h.001a3.937 3.937 0 0 0 3.919-3.936v-.02.001c.036-2.157-1.725-3.956-3.919-3.956z" />
         <path fill="#67a445" style="fill:var(--color10, #67a445)"
            d="M14.959 27.905c-6.905 0-12.513-5.645-12.513-12.621S8.055 2.698 14.959 2.698c6.903 0 12.513 5.647 12.513 12.623s-5.61 12.585-12.513 12.585zm0-24.523c-6.545 0-11.866 5.359-11.866 11.939s5.322 11.937 11.866 11.937c6.545 0 11.866-5.357 11.866-11.937S21.503 3.382 14.959 3.382z" />
         <path fill="#67a445" style="fill:var(--color10, #67a445)"
            d="M14.959 25.28c-5.466 0-9.888-4.46-9.888-9.962 0-5.501 4.422-9.959 9.888-9.959 5.465 0 9.888 4.458 9.888 9.959 0 5.503-4.422 9.961-9.888 9.961zm0-19.274c-5.071 0-9.241 4.17-9.241 9.277 0 5.105 4.135 9.277 9.241 9.277s9.241-4.172 9.241-9.277c0-5.105-4.17-9.277-9.241-9.277z" />
         <path fill="#67a445" style="fill:var(--color10, #67a445)"
            d="M14.959 22.759c-4.099 0-7.408-3.344-7.408-7.479 0-4.099 3.309-7.479 7.408-7.479s7.407 3.345 7.407 7.479c0 4.135-3.308 7.479-7.407 7.479zm0-14.24c-3.74 0-6.761 3.057-6.761 6.797s3.021 6.796 6.761 6.796c3.738 0 6.759-3.056 6.759-6.796 0-3.776-3.055-6.796-6.759-6.796zm41.927 19.382c-6.905 0-12.513-5.644-12.513-12.621 0-6.976 5.609-12.621 12.513-12.621 6.903 0 12.513 5.645 12.513 12.621s-5.61 12.621-12.513 12.621zm0-24.524c-6.545 0-11.866 5.359-11.866 11.939s5.322 11.937 11.866 11.937 11.866-5.357 11.866-11.937c0-6.58-5.322-11.937-11.866-11.937z" />
         <path fill="#67a445" style="fill:var(--color10, #67a445)"
            d="M56.886 25.28c-5.466 0-9.889-4.46-9.889-9.962 0-5.501 4.423-9.959 9.889-9.959s9.888 4.458 9.888 9.959c0 5.503-4.422 9.961-9.888 9.961zm0-19.274c-5.071 0-9.242 4.17-9.242 9.277 0 5.105 4.135 9.277 9.242 9.277 5.069 0 9.241-4.172 9.241-9.277s-4.135-9.277-9.241-9.277z" />
         <path fill="#67a445" style="fill:var(--color10, #67a445)"
            d="M56.886 22.759c-4.1 0-7.408-3.344-7.408-7.479 0-4.099 3.309-7.479 7.408-7.479s7.407 3.345 7.407 7.479c0 4.135-3.308 7.479-7.407 7.479zm0-14.24c-3.74 0-6.761 3.057-6.761 6.797s3.021 6.796 6.761 6.796c3.703 0 6.759-3.056 6.759-6.796v-.036a6.759 6.759 0 0 0-6.759-6.759zm-21.18.328c-3.559 0-9.097-.934-14.311-3.559l.288-.611c5.249 2.662 10.822 3.559 14.311 3.488 3.2.035 9.348-1.222 14.527-3.705l.288.611c-5.251 2.518-11.578 3.812-14.815 3.776h-.288z" />
         <path fill="#67a445" style="fill:var(--color10, #67a445)"
            d="M36.282 11.254h-.361c-2.876.036-9.888-.647-15.857-3.631l.288-.611c5.862 2.947 12.73 3.631 15.535 3.559 2.662.035 6.796-.396 10.391-1.763l.252.611c-3.488 1.367-7.514 1.834-10.247 1.834z" />
         <path fill="#67a445" style="fill:var(--color10, #67a445)"
            d="M35.095 13.985c-.935 0-1.763 0-2.374-.036-3.344.036-8.666-.79-12.836-3.379l.359-.576c4.028 2.516 9.206 3.345 12.406 3.273h.073c2.444.035 8.125.144 12.189-.935l.179.647c-3.127.863-7.156 1.007-9.996 1.007zM21.969 25.673l-.287-.611c5.033-2.516 11.002-3.847 14.167-3.775 3.415-.036 8.845.863 13.987 3.559l-.323.576c-4.998-2.662-10.356-3.524-13.664-3.488-3.056-.073-8.954 1.258-13.879 3.738z" />
         <path fill="#67a445" style="fill:var(--color10, #67a445)"
            d="M50.701 23.084c-5.61-2.912-12.189-3.596-14.887-3.559-2.553-.036-6.508.394-9.961 1.76l-.252-.611c3.524-1.401 7.587-1.869 10.176-1.798 2.769-.035 9.457.647 15.175 3.668l-.252.538z" />
         <path fill="#67a445" style="fill:var(--color10, #67a445)"
            d="M51.312 20.102c-3.956-2.266-8.954-2.986-12.118-2.95-2.589-.036-7.587 0-11.974.828l-.108-.647c4.422-.864 9.492-.899 12.116-.864 3.2-.035 8.378.684 12.442 3.021l-.359.611zm-33.513-4.818c0 1.439-1.151 2.624-2.589 2.624s-2.589-1.185-2.589-2.624c0-1.44 1.151-2.625 2.589-2.625s2.589 1.151 2.589 2.625zm41.711 0c0 1.439-1.149 2.624-2.589 2.624-1.437 0-2.589-1.185-2.589-2.624 0-1.44 1.152-2.625 2.589-2.625 1.44 0 2.589 1.151 2.589 2.625z" />
      </symbol>
      <symbol id="icon-discont" viewBox="0 0 32 32">
         <path fill="#ffb800" style="fill:var(--color6, #ffb800)"
            d="M30.451 16.416a.893.893 0 0 1 .002-.837l-.002.005 1.246-2.445c.691-1.364.141-2.981-1.251-3.688l-2.501-1.277a.952.952 0 0 1-.508-.663l-.001-.006-.488-2.678c-.273-1.487-1.706-2.494-3.267-2.282l-2.809.387a.985.985 0 0 1-.821-.256l.001.001L18.014.789c-.53-.488-1.241-.787-2.022-.787S14.5.301 13.968.791l.002-.002-2.038 1.888a.986.986 0 0 1-.828.255l.006.001-2.808-.381c-1.563-.212-2.995.788-3.267 2.282l-.477 2.678a.948.948 0 0 1-.503.666l-.005.002-2.499 1.275C.156 10.162-.391 11.789.3 13.145l1.243 2.445a.893.893 0 0 1-.002.837l.002-.005L.3 18.861c-.691 1.364-.143 2.981 1.25 3.688l2.501 1.277a.95.95 0 0 1 .509.669l.488 2.678c.248 1.356 1.459 2.307 2.853 2.307.135 0 .273-.007.416-.032l2.808-.381a.985.985 0 0 1 .821.256h-.001l2.038 1.888a2.974 2.974 0 0 0 2.019.788 2.96 2.96 0 0 0 2.019-.788l2.038-1.888a.985.985 0 0 1 .825-.256l-.006-.001 2.808.381c1.563.212 2.996-.788 3.269-2.282l.488-2.678a.953.953 0 0 1 .503-.666l.005-.003 2.501-1.275c1.393-.707 1.94-2.333 1.25-3.69l-1.25-2.439zM12.153 7.692c1.947 0 3.523 1.519 3.523 3.384 0 1.869-1.583 3.384-3.523 3.384-1.949 0-3.523-1.521-3.523-3.385-.007-1.863 1.575-3.382 3.523-3.382zM10.329 22.75a.972.972 0 0 1-.674.269h-.016a.95.95 0 0 1-.665-.27.895.895 0 0 1 0-1.306L21.666 9.254a.985.985 0 0 1 1.361 0 .895.895 0 0 1 .001 1.306L10.329 22.749zm9.516 1.565c-1.949 0-3.525-1.521-3.525-3.385 0-1.863 1.583-3.382 3.523-3.382 1.949 0 3.523 1.519 3.523 3.384 0 1.863-1.575 3.384-3.522 3.384z" />
         <path fill="#ffb800" style="fill:var(--color6, #ffb800)"
            d="M19.842 19.389c-.886 0-1.6.687-1.6 1.538s.714 1.539 1.6 1.539 1.603-.689 1.603-1.539c0-.851-.717-1.538-1.603-1.538zm-7.69-9.85c-.886 0-1.603.689-1.603 1.538 0 .851.717 1.539 1.603 1.539s1.6-.689 1.6-1.539c0-.842-.714-1.538-1.6-1.538z" />
      </symbol>
      <symbol id="icon-phone" viewBox="0 0 20 32">
         <path fill="none" stroke="#fff" style="stroke:var(--color1, #fff)" stroke-width="5.053"
            d="M1.684 0h16.842c.93 0 1.684.754 1.684 1.684v28.632c0 .93-.754 1.684-1.684 1.684H1.684C.754 32 0 31.246 0 30.316V1.684C0 .754.754 0 1.684 0z" />
         <path fill="none" stroke="#fff" style="stroke:var(--color1, #fff)" stroke-width="1.684"
            d="M6.737 24.421h6.737" />
      </symbol>
      <symbol id="icon-polygon" viewBox="0 0 45 32">
         <path fill="#fff" style="fill:var(--color1, #fff)" d="M22.4 32 0 0h44.8L22.4 32z" />
      </symbol>
      <symbol id="icon-profile" viewBox="0 0 25 32">
         <path fill="none" stroke="#fff" style="stroke:var(--color1, #fff)" stroke-linejoin="round"
            stroke-linecap="round" stroke-width="2.182"
            d="M19.428 9.132a6.95 6.95 0 1 1-13.901-.001 6.95 6.95 0 0 1 13.901.001zM1.455 25.745v-.011c0-.509.118-.991.328-1.419l-.008.019c.665-1.332 2.543-2.038 4.1-2.356.974-.22 2.14-.39 3.329-.475l.079-.005a37.013 37.013 0 0 1 6.519.01l-.141-.01c1.145.08 2.284.24 3.408.48 1.556.319 3.434.957 4.102 2.356.202.415.32.902.32 1.417s-.118 1.003-.328 1.437l.009-.02c-.668 1.398-2.545 2.036-4.102 2.343a22.81 22.81 0 0 1-3.408.493 37.82 37.82 0 0 1-5.193.08c-.4 0-.785 0-1.185-.08a22.57 22.57 0 0 1-3.546-.522l.151.029c-1.571-.305-3.434-.945-4.113-2.343a3.267 3.267 0 0 1-.32-1.421v-.004 0z" />
      </symbol>
      <symbol id="icon-workshop" viewBox="0 0 34 32">
         <path fill="#fff" style="fill:var(--color1, #fff)"
            d="M27.88 17.538a11.226 11.226 0 0 0-.007-3.136l.007.06 4.298-2.365-4.099-7.545-4.3 2.366a11.537 11.537 0 0 0-3.246-1.96l-.078-.027V0h-8.551v4.931a11.6 11.6 0 0 0-3.34 2l.015-.013-4.301-2.366-4.099 7.545 4.301 2.365a11.226 11.226 0 0 0 .007 3.136l-.007-.06-4.301 2.365 4.101 7.545 4.3-2.366a11.537 11.537 0 0 0 3.246 1.96l.078.027V32h8.551v-4.931a11.6 11.6 0 0 0 3.34-2l-.015.013 4.3 2.366 4.099-7.545-4.298-2.365zm-11.701 2.838a4.366 4.366 0 0 1-4.345-4.365V16v.001-.01a4.365 4.365 0 0 1 4.344-4.365h.001a4.366 4.366 0 0 1 4.347 4.365v.011-.001.017a4.36 4.36 0 0 1-4.345 4.359h-.001z" />
      </symbol>
      <symbol id="icon-search" viewBox="0 0 32 32">
         <path fill="none" stroke-linejoin="round" stroke-linecap="round" stroke-width="2.286"
            d="M28.581 14.882c0 7.565-6.133 13.698-13.698 13.698S1.185 22.447 1.185 14.882 7.318 1.184 14.883 1.184s13.698 6.133 13.698 13.698zM24.408 25.118l5.37 5.358" />
      </symbol>
      <symbol id="icon-up" viewBox="0 0 30 32">
         <path d="M0 0h30.4v30.4H0z" />
         <path fill="none" stroke="#fff" style="stroke:var(--color1, #fff)" stroke-width=".8"
            d="M15.2.4C23.374.4 30 7.026 30 15.2S23.374 30 15.2 30 .4 23.374.4 15.2 7.026.4 15.2.4z" />
         <path fill="none" stroke="#fff" style="stroke:var(--color1, #fff)" stroke-width=".8"
            d="M3.888 20 15.202 8.686 26.516 20" />
      </symbol>
      <symbol id="icon-velo" viewBox="0 0 47 32">
         <path
            d="M37.508 12.066c-.459 0-.909.038-1.35.102l2.673 9.062-2.647.781-2.673-9.062c-3.3 1.552-5.545 4.846-5.553 8.665v.001a9.558 9.558 0 0 0 9.549 9.551h.001a9.559 9.559 0 0 0 9.551-9.551c-.005-5.272-4.279-9.545-9.551-9.549z" />
         <path
            d="M32.555 0h-5.404v2.758h3.343l1.195 4.062-14.052 2.481-1.894-3.371h1.969V3.172h-6.876v2.756h1.754l2.933 5.222-1.655 1.948a9.424 9.424 0 0 0-4.311-1.027 9.56 9.56 0 0 0-9.559 9.546v.001a9.558 9.558 0 0 0 9.549 9.551h.001c4.592-.008 8.424-3.248 9.344-7.567l.011-.063-9.438-.552.156-2.758 9.431.552a9.503 9.503 0 0 0-2.936-6.089l-.004-.004 2.325-2.739 8.079-1.425-3.08 10.515-4.393-.258a9.473 9.473 0 0 1-.167 2.809l.011-.061 6.581.386 4.081-13.933 2.923-.516 1.02 3.465a9.165 9.165 0 0 1 2.647-.781L32.555-.001z" />
      </symbol>
      <symbol id="icon-visa" viewBox="0 0 99 32">
         <path fill="#fff" style="fill:var(--color1, #fff)"
            d="M42.617 31.37H34.65L39.633.559H47.6L42.617 31.37zM71.498 1.312C69.927.688 67.435 0 64.353 0c-7.868 0-13.409 4.196-13.442 10.194-.066 4.425 3.966 6.883 6.982 8.358 3.082 1.508 4.13 2.491 4.13 3.835-.031 2.064-2.49 3.016-4.784 3.016-3.181 0-4.885-.491-7.475-1.639l-1.049-.492-1.115 6.917c1.869.85 5.312 1.606 8.886 1.639 8.359 0 13.801-4.131 13.866-10.523.031-3.507-2.097-6.195-6.688-8.391-2.786-1.41-4.493-2.36-4.493-3.803.033-1.31 1.444-2.653 4.59-2.653 2.589-.066 4.492.557 5.934 1.179l.72.327 1.083-6.653zm10.588 19.143c.656-1.771 3.182-8.622 3.182-8.622-.034.066.655-1.802 1.048-2.95l.557 2.655s1.509 7.376 1.836 8.916h-6.622zM91.92.558h-6.162c-1.9 0-3.344.558-4.164 2.556L69.759 31.37h8.359l1.672-4.622h10.229c.229 1.082.951 4.622.951 4.622h7.376L91.919.559zM27.995.559l-7.802 21.01-.852-4.261C17.898 12.391 13.374 7.049 8.326 4.393l7.147 26.944h8.424L36.42.558h-8.425z" />
         <path fill="#faa61a" style="fill:var(--color11, #faa61a)"
            d="M12.949.559H.131L0 1.182c9.999 2.557 16.621 8.72 19.342 16.128L16.555 3.15C16.096 1.182 14.686.625 12.949.56z" />
      </symbol>
      <symbol id="icon-wear" viewBox="0 0 28 32">
         <path
            d="M2.407 9.868 3.6 9.646l.204.976c1.369-2.795 3.321-5.116 5.709-6.878l.051-.036c-.228-.092-.409-.172-.54-.229l-6.356 1.6C1.404 5.394.494 6.448.417 7.68l-.418 6.736 3.463.409-1.056-4.956zm2.916 10.381-.364 7.991 2.249.423-.107-1.127a24.937 24.937 0 0 0-1.839-7.45l.061.165zm-.475 10.267L12.729 32v-1.127l-7.831-1.476-.053 1.116zM16.981 1.84l-1.116.208c-.558.108-1.214.183-1.882.207l-.024.001c0 .05 0 .094-.007.137v.996a12.65 12.65 0 0 0 3.119-.928l-.081.032v-.652h-.009zM9.691.466v.21l1.36.258c1.511.288 3.068.288 4.572 0l1.36-.258v-.21l-1.36-.251C14.936.078 14.145 0 13.337 0s-1.599.078-2.364.228l.077-.013-1.362.251zM24 5.079l-6.35-1.6c-.128.057-.311.137-.539.231a18.758 18.758 0 0 1 5.64 6.668l.049.107.274-1.404 1.191.208-1.07 5.543 3.479-.409-.418-6.734c-.084-1.248-.988-2.293-2.256-2.61zm-4.436 22.459-.1 1.125 2.249-.423-.364-7.989c-.908 2.132-1.541 4.603-1.778 7.188l-.007.097z" />
         <path
            d="M22.391 12.58c-1.163-3.17-3.275-5.954-6.076-8.011l-.548-.402a9.767 9.767 0 0 1-1.772.382l-.051.005v25.157l4.284-.811.128-1.456a25.773 25.773 0 0 1 2.115-8.211l-.065.164c.396-.754.729-1.529.988-2.331.259-.918.604-2.43.908-3.958l.088-.531zM12.729 2.293v-.03h-.023a12.86 12.86 0 0 1-1.972-.221l.08.013-1.116-.213v.651a12.77 12.77 0 0 0 3.038.898V2.292h-.007zm9.038 27.103-7.822 1.477V32l7.876-1.484-.053-1.12zM4.24 12.665c.242 1.148.455 2.302.775 3.428.478 1.707 1.321 3.3 1.913 4.978a26.378 26.378 0 0 1 1.39 6.368l.13 1.458 4.284.809V4.556a9.84 9.84 0 0 1-1.893-.407l.069.019-.548.402C7.6 6.594 5.484 9.346 4.279 12.546l-.04.12z" />
      </symbol>
      <symbol id="icon-repair" viewBox="0 0 32 32">
         <path
            d="m31.627 4.142-4.002 4-3.621-.151-.151-3.62 4-4a6.247 6.247 0 0 0-7.98 8.043l-.014-.043L8.375 19.857a6.13 6.13 0 0 0-2.117-.369 6.254 6.254 0 0 0-5.87 4.097l-.014.043a6.118 6.118 0 0 0-.37 2.119 6.248 6.248 0 0 0 4.098 5.867l.043.014a6.134 6.134 0 0 0 2.113.367 6.258 6.258 0 0 0 5.875-8.418l.014.043 11.484-11.484a6.13 6.13 0 0 0 2.117.369 6.247 6.247 0 0 0 5.864-8.406l.014.043zM8.921 26.841 7.36 28.4H5.156l-1.561-1.559v-2.212l1.561-1.559H7.36l1.561 1.559v2.212z" />
      </symbol>
      <symbol id="icon-youtube" viewBox="0 0 32 32">
         <path fill="#fff" style="fill:var(--color1, #fff)"
            d="M3.699 0a3.2 3.2 0 0 0-3.2 3.2v24.25a3.2 3.2 0 0 0 3.2 3.2h24.248a3.2 3.2 0 0 0 3.2-3.2V3.2a3.2 3.2 0 0 0-3.2-3.2H3.699zm19.259 8.149c1.661 0 3.006 1.509 3.006 3.384.096 1.486.141 2.971.133 4.454a66.361 66.361 0 0 1-.139 4.458c0 1.875-1.344 3.395-3.006 3.395a140.23 140.23 0 0 1-7.256.16h-.371c-2.422 0-4.83-.058-7.223-.173l.338.013c-1.658 0-3.003-1.52-3.003-3.395a63.782 63.782 0 0 1-.138-4.269v-.196.01c-.003-1.483.04-2.966.142-4.448 0-1.875 1.344-3.392 3.002-3.392 1.964-.096 4.265-.151 6.579-.151h.33-.017.731c2.346 0 4.642.042 6.893.149zm-9.248 3.742v8.187l5.89-4.096-5.891-4.091z" />
      </symbol>
      <symbol id="icon-logo-footer" viewBox="0 0 62 32">
         <path fill="#fff" style="fill:var(--color1, #fff)"
            d="M56.316 24.776c1.361-.888 1.954-.848 2.644.138.316-.316.671-.573 1.105-.691a1.645 1.645 0 0 1 .88.003l-.011-.003c.533.138.828.533.868 1.144.04.533-.079 1.066-.098 1.579-.02.157-.04.296-.059.454-.04.296.059.375.335.315.138-.039.178-.02.178.138 0 .217.02.414.04.631.019.119-.02.198-.138.237-.434.217-.888.316-1.361.198-.355-.079-.572-.316-.612-.671-.059-.474.059-.927.079-1.381.02-.237.059-.493.059-.73-.02-.474-.316-.671-.77-.513-.316.118-.474.296-.493.652-.059.809-.158 1.617-.237 2.427-.02.158-.059.217-.237.217-.375-.02-.75 0-1.125 0-.158 0-.217-.04-.198-.197.099-.79.178-1.578.257-2.368.02-.276.04-.573-.237-.73s-.532-.02-.77.118c-.217.119-.315.297-.335.553-.059.79-.158 1.579-.237 2.368-.02.158-.079.237-.257.237-.375-.02-.75 0-1.125 0-.119 0-.178 0-.158-.157.138-1.322.276-2.665.415-3.987.02-.119.039-.178.177-.198.414-.099.848-.197 1.263-.315.138-.04.158 0 .138.118.04.119 0 .257.02.414zm-17.247 3.572c-.493.592-1.105.77-1.815.652-.474-.079-.81-.336-1.047-.77-.532-1.007-.315-2.624.493-3.433.632-.632 1.382-.77 2.23-.553.138.04.276.118.434.237.04-.276.059-.513.079-.75l.177-1.677c0-.099.04-.138.138-.177.434-.099.888-.217 1.322-.336.119-.04.119.02.119.119-.119 1.184-.257 2.368-.375 3.552l-.237 2.191c-.02.256.079.355.316.296.059-.02.118-.02.198-.04.039.296.058.572.058.868 0 .099-.058.138-.118.158-.414.217-.848.335-1.342.217a.854.854 0 0 1-.631-.553zm-1.619-1.579c.02.375.059.73.434.908.375.158.71.079 1.026-.158a.589.589 0 0 0 .257-.493c.028-.413.063-.766.108-1.116l-.01.09c.039-.217-.04-.316-.198-.434a.998.998 0 0 0-1.458.428l-.003.006a1.774 1.774 0 0 0-.157.735v.036-.002zm-9.985-2.585c.039.177-.02.335 0 .533.237-.218.454-.375.749-.474 1.066-.336 1.935.157 2.171 1.263.198.888.099 1.756-.414 2.546-.533.828-1.598 1.204-2.506.888a1.135 1.135 0 0 1-.397-.218l.002.001c-.079.237-.079.454-.099.671-.05.346-.12.991-.179 1.638l-.018.237c-.02.158-.059.217-.237.217a9.645 9.645 0 0 0-1.091.001l.026-.001c-.177 0-.257-.039-.217-.237l.296-2.762c.118-1.086.217-2.151.335-3.237.02-.099.02-.197.04-.296.059-.395.059-.395.434-.493.355-.079.73-.178 1.105-.276zm.71 1.244h-.118c-.454.039-.77.335-.809.789-.04.336-.059.652-.099.987-.02.198.059.316.217.414a1.025 1.025 0 0 0 1.46-.454c.177-.375.198-.789.099-1.184-.119-.355-.375-.553-.751-.553zm23.504-1.263c1.164 0 1.934.573 2.151 1.619.198 1.007-.04 1.914-.809 2.605-.77.671-1.697.828-2.645.493-.848-.297-1.243-.967-1.302-1.836-.079-1.204.553-2.408 1.855-2.782a2.45 2.45 0 0 1 .75-.099zm-1.106 2.565v.197c.059.651.572.987 1.125.75.198-.099.355-.257.454-.454.117-.228.186-.498.186-.784 0-.171-.025-.336-.07-.492l.003.012c-.119-.414-.493-.632-.928-.513a.936.936 0 0 0-.611.513 2.137 2.137 0 0 0-.158.77zm-32.777-.356c-.04 1.263-.71 2.191-1.875 2.545a2.628 2.628 0 0 1-1.754-.065l.018.006c-.592-.237-.967-.671-1.145-1.283-.335-1.125.138-2.447 1.125-3.039.75-.454 1.559-.513 2.388-.217.79.276 1.263 1.085 1.243 2.052zm-3.297.395c0 .059 0 .138.02.217.059.415.276.691.592.77a.845.845 0 0 0 .927-.434c.276-.454.316-.927.138-1.421a.635.635 0 0 0-.532-.454.903.903 0 0 0-.928.454c-.157.256-.217.533-.217.868zm-5.545.652c.099.296.198.572.297.829.019.079.019.119-.04.178-.888.553-1.835.829-2.861.394-.671-.276-1.007-.829-1.105-1.52-.118-.848.04-1.638.592-2.309.632-.751 1.934-1.066 2.822-.671s1.303 1.48.948 2.467c-.04.119-.119.099-.217.099H6.903c-.237 0-.257.02-.177.256.118.435.375.632.829.652.474.02.947-.099 1.401-.375zm-1.401-1.264h.454c.355 0 .454-.158.296-.493a.587.587 0 0 0-.273-.295l-.003-.002c-.474-.256-1.184.138-1.243.691-.02.099.04.119.119.119.197-.02.434-.02.652-.02zm26.365.73h-1.243c-.198 0-.198.059-.158.217.118.454.375.671.848.691.454.02.868-.059 1.263-.276.119-.079.158-.04.198.079l.237.652c.02.079.04.157-.059.217-.809.493-1.658.749-2.585.474-.75-.217-1.184-.751-1.342-1.5-.237-1.164.217-2.348 1.144-2.881.691-.414 1.441-.513 2.21-.217.691.276 1.007.829 1.105 1.539.04.297 0 .573-.079.869-.04.118-.099.177-.237.177-.454-.04-.888-.04-1.302-.04zm-.592-.73h.671c.119.02.158-.04.158-.158.02-.336-.178-.612-.474-.691-.474-.138-1.046.256-1.125.75-.02.099.04.099.099.099h.671zm-12.511-1.992c.533.02 1.066.079 1.579.257.138.04.177.119.118.257-.118.296-.217.612-.316.908-.04.119-.059.178-.217.099-.414-.237-.868-.296-1.342-.276a.599.599 0 0 0-.316.099c-.118.079-.158.197-.158.335s.099.217.197.237c.276.079.553.119.829.198.099.019.177.039.276.079.474.138.869.375.928.908.079.553-.119 1.007-.573 1.342-.394.276-.829.375-1.303.414-.769.059-1.5-.02-2.191-.375-.355-.178-.355-.178-.177-.533.099-.198.217-.394.316-.592.059-.118.079-.138.217-.059.434.297.947.395 1.46.395.118 0 .256-.02.375-.079s.198-.158.198-.296c0-.138-.099-.217-.218-.256-.296-.119-.611-.119-.908-.218-.02 0-.04 0-.059-.02-.493-.138-.927-.335-1.026-.908-.119-.631.099-1.125.592-1.48.513-.355 1.105-.434 1.717-.434zM2.363 27.302c.758-2.113 1.098-2.974 1.444-3.832l-.438 1.227c.177-.474.059-.375.553-.394h1.223c.138 0 .158.039.099.177a865.412 865.412 0 0 0-2.131 4.302c-.04.099-.099.118-.218.118h-1.48c-.099 0-.158-.039-.178-.138C.823 27.341.428 25.901.013 24.48c-.039-.119 0-.158.119-.158h1.519c.138 0 .158.059.177.178.158.927.296 1.835.454 2.762.02-.02.04 0 .079.04zm42.133-.533c.04-.77.276-1.46.868-1.974.592-.533 1.303-.671 2.053-.632.434.02.868.119 1.263.336.119.059.158.118.079.256-.158.277-.316.573-.454.849-.079.138-.118.197-.296.098a1.592 1.592 0 0 0-1.204-.138c-.828.256-.888 1.401-.493 1.835a.808.808 0 0 0 .691.276c.415-.02.77-.138 1.086-.414.138-.119.177-.059.217.059.099.296.177.592.276.869.04.099.02.158-.059.217-.908.592-1.855.809-2.881.434-.71-.257-1.026-.849-1.125-1.559 0-.158 0-.335-.02-.513zM11.322 28.96c-.197 0-.375-.04-.553-.079-.375-.119-.572-.415-.552-.908.02-.494.079-1.007.138-1.5.099-.967.197-1.954.315-2.921.04-.454.099-.927.138-1.382.02-.177.079-.256.256-.296.489-.098.887-.201 1.277-.321l-.092.024c.138-.039.158 0 .138.119l-.414 3.907-.177 1.836c-.02.256.039.315.296.296.395-.039.395-.039.415.355v.178c.04.414.04.414-.375.553a3.87 3.87 0 0 1-.809.138zm12.926-4.657h.553c.157 0 .197.04.177.198-.078.886-.148 1.53-.228 2.171l.03-.296c-.079.789-.177 1.559-.256 2.348-.02.138-.059.198-.198.177-.375 0-.769-.02-1.144 0-.158 0-.197-.059-.177-.217.099-.908.198-1.835.276-2.743.059-.494.118-.987.158-1.48.02-.138.059-.178.198-.178.217.02.414.02.611.02zm18.551 2.723c.553 0 .967.394.987.927 0 .592-.553 1.105-1.184 1.105a.93.93 0 0 1-.947-.927c-.02-.612.513-1.105 1.144-1.105zm-18.471-3.474c-.493 0-.79-.296-.79-.769 0-.553.414-.947.987-.927.474 0 .809.335.809.769 0 .553-.434.948-1.007.928z" />
         <path fill="#67a445" style="fill:var(--color2, #67a445)"
            d="M42.274 16.873a8.413 8.413 0 0 1-4.125-1.086c-2.98-1.697-6.078-2.111-7.302-2.071-1.223-.04-4.321.394-7.301 2.071a8.265 8.265 0 0 1-4.12 1.086h-.004c-4.618 0-8.367-3.789-8.367-8.426S14.804.001 19.422.001c1.441 0 2.861.375 4.125 1.085 2.979 1.697 6.078 2.112 7.301 2.072 1.224.02 4.322-.394 7.302-2.072A8.265 8.265 0 0 1 42.27 0h.004c4.617 0 8.367 3.789 8.367 8.426s-3.749 8.446-8.366 8.446zm-11.308-3.552c1.757 0 4.776.651 7.361 2.131a7.834 7.834 0 0 0 3.936 1.046h.012-.001c4.42 0 8.012-3.612 8.012-8.072.001-4.44-3.592-8.071-8.011-8.071a7.923 7.923 0 0 0-3.947 1.046c-2.645 1.5-5.723 2.171-7.48 2.131-1.737.02-4.835-.611-7.479-2.131A7.84 7.84 0 0 0 19.434.355h-.014.001c-4.42 0-8.012 3.611-8.012 8.071 0 4.44 3.592 8.072 8.012 8.072a7.923 7.923 0 0 0 3.947-1.046c2.644-1.5 5.743-2.151 7.479-2.131h.118z" />
         <path fill="#67a445" style="fill:var(--color2, #67a445)"
            d="M42.274 10.972c-1.381 0-2.526-1.144-2.526-2.545s1.125-2.546 2.526-2.546c1.382 0 2.526 1.145 2.526 2.546s-1.144 2.545-2.526 2.545zm0-4.716a2.16 2.16 0 0 0-2.151 2.17c0 1.204.967 2.171 2.151 2.171s2.152-.967 2.152-2.171c0-1.184-.967-2.171-2.152-2.171zm-22.852 4.716c-1.381 0-2.526-1.144-2.526-2.545s1.125-2.546 2.526-2.546c1.381 0 2.526 1.145 2.526 2.546s-1.125 2.545-2.526 2.545zm0-4.716a2.16 2.16 0 0 0-2.151 2.17c0 1.204.967 2.171 2.151 2.171s2.151-.967 2.151-2.171a2.148 2.148 0 0 0-2.151-2.171z" />
         <path fill="#67a445" style="fill:var(--color2, #67a445)"
            d="M19.264 15.313c-3.789 0-6.867-3.099-6.867-6.927s3.078-6.907 6.867-6.907 6.868 3.098 6.868 6.927-3.079 6.907-6.868 6.907zm0-13.459c-3.592 0-6.512 2.941-6.512 6.552s2.921 6.552 6.512 6.552 6.512-2.941 6.512-6.551c0-3.612-2.921-6.552-6.512-6.552z" />
         <path fill="#67a445" style="fill:var(--color2, #67a445)"
            d="M19.264 13.873c-3 0-5.427-2.447-5.427-5.466s2.427-5.466 5.427-5.466c2.999 0 5.427 2.447 5.427 5.466s-2.427 5.466-5.427 5.466zm0-10.577c-2.783 0-5.072 2.289-5.072 5.091s2.269 5.091 5.072 5.091c2.802 0 5.072-2.289 5.072-5.091s-2.289-5.092-5.072-5.092z" />
         <path fill="#67a445" style="fill:var(--color2, #67a445)"
            d="M19.264 12.492c-2.249 0-4.065-1.836-4.065-4.105 0-2.249 1.815-4.105 4.065-4.105s4.065 1.836 4.065 4.105-1.815 4.105-4.065 4.105zm0-7.815c-2.052 0-3.71 1.677-3.71 3.729s1.658 3.729 3.71 3.729c2.053 0 3.71-1.677 3.71-3.729a3.722 3.722 0 0 0-3.71-3.729zm23.01 10.636c-3.789 0-6.868-3.098-6.868-6.927s3.078-6.927 6.868-6.927c3.789 0 6.867 3.098 6.867 6.927s-3.078 6.927-6.867 6.927zm0-13.458c-3.592 0-6.513 2.941-6.513 6.551 0 3.612 2.921 6.552 6.513 6.552s6.512-2.941 6.512-6.552-2.921-6.551-6.512-6.551z" />
         <path fill="#67a445" style="fill:var(--color2, #67a445)"
            d="M42.274 13.873c-3 0-5.427-2.447-5.427-5.466s2.427-5.466 5.427-5.466c2.999 0 5.427 2.447 5.427 5.466s-2.427 5.466-5.427 5.466zm0-10.577c-2.783 0-5.072 2.289-5.072 5.091s2.269 5.091 5.072 5.091c2.782 0 5.071-2.289 5.071-5.091s-2.269-5.092-5.071-5.092z" />
         <path fill="#67a445" style="fill:var(--color2, #67a445)"
            d="M42.274 12.492c-2.25 0-4.066-1.836-4.066-4.105 0-2.249 1.815-4.105 4.065-4.105s4.066 1.836 4.066 4.105-1.815 4.105-4.065 4.105zm0-7.815c-2.053 0-3.71 1.677-3.71 3.729s1.658 3.729 3.71 3.729c2.032 0 3.71-1.677 3.71-3.729a3.71 3.71 0 0 0-3.71-3.729zm-11.624.178c-1.953 0-4.992-.513-7.854-1.954l.158-.335c2.881 1.46 5.94 1.953 7.854 1.914 1.756.02 5.131-.671 7.973-2.033l.158.336c-2.881 1.381-6.355 2.092-8.13 2.072h-.158z" />
         <path fill="#67a445" style="fill:var(--color2, #67a445)"
            d="M30.966 6.177h-.197c-1.578.02-5.427-.355-8.703-1.993l.158-.336c3.216 1.619 6.986 1.993 8.525 1.954 1.46.02 3.729-.217 5.704-.967l.138.336c-1.914.75-4.124 1.007-5.624 1.007z" />
         <path fill="#67a445" style="fill:var(--color2, #67a445)"
            d="M30.315 7.677c-.513 0-.967 0-1.302-.02-1.836.02-4.756-.434-7.046-1.855l.198-.315c2.21 1.381 5.052 1.835 6.808 1.796h.04c1.342.02 4.46.079 6.69-.513l.099.355c-1.717.474-3.927.553-5.487.553zm-7.203 6.414-.158-.336c2.762-1.381 6.039-2.112 7.775-2.072 1.875-.02 4.855.474 7.676 1.954l-.177.315c-2.743-1.46-5.683-1.934-7.499-1.914-1.677-.04-4.913.691-7.617 2.053z" />
         <path fill="#67a445" style="fill:var(--color2, #67a445)"
            d="M38.88 12.67c-3.079-1.598-6.69-1.974-8.17-1.954-1.402-.02-3.572.217-5.467.967l-.138-.336c1.934-.769 4.164-1.026 5.585-.986 1.519-.02 5.19.355 8.328 2.013l-.138.296z" />
         <path fill="#67a445" style="fill:var(--color2, #67a445)"
            d="M39.215 11.032c-2.17-1.243-4.913-1.638-6.65-1.617-1.421-.02-4.164 0-6.572.454l-.059-.355c2.427-.474 5.21-.493 6.65-.474 1.757-.02 4.599.375 6.828 1.658l-.197.335zM20.823 8.387c0 .79-.632 1.441-1.421 1.441s-1.421-.652-1.421-1.441c0-.79.632-1.441 1.421-1.441s1.421.631 1.421 1.441zm22.892 0c0 .79-.632 1.441-1.421 1.441s-1.421-.652-1.421-1.441c0-.79.631-1.441 1.421-1.441s1.421.631 1.421 1.441z" />
      </symbol>
      <symbol id="icon-menu" viewBox="0 0 38 32">
         <path fill="#fff" style="fill: var(--color1, #fff)"
            d="M0 0h37.818v2.909h-37.818zM0 14.545h37.818v2.909h-37.818zM0 29.091h37.818v2.909h-37.818z"></path>
      </symbol>
      <symbol id="icon-close" viewBox="0 0 32 32">
         <path fill="#fff" style="fill: var(--color1, #fff)" d="M28.283 0l1.885 1.885-28.283 28.285-1.888-1.885z">
         </path>
         <path fill="#fff" style="fill: var(--color1, #fff)" d="M30.171 28.28l-1.885 1.888-28.285-28.285 1.888-1.885z">
         </path>
      </symbol>

   </defs>
</svg>